<svg id="Layer_2" data-name="Layer 2" xmlns="http://www.w3.org/2000/svg" viewBox="0 0 164 164"><title>UXPin-Logo-BlackFill</title><path d="M94.8,67a4.72,4.72,0,0,0-2.28-.9,17.35,17.35,0,0,0-2-.12H87V82h3.76a10.86,10.86,0,0,0,2.61-.3,4.77,4.77,0,0,0,2.13-1.15A5.57,5.57,0,0,0,97,78.14a13.31,13.31,0,0,0,.52-4,11.09,11.09,0,0,0-.79-4.71A6.35,6.35,0,0,0,94.8,67Z"/><path d="M0,0V164H164V0ZM52.83,90.08c0,.72,0,1.55-.06,2.48a19.41,19.41,0,0,1-.33,2.8,12.33,12.33,0,0,1-.9,2.8,7.64,7.64,0,0,1-1.78,2.45,9,9,0,0,1-2.93,1.72,12.6,12.6,0,0,1-4.37.66,11.67,11.67,0,0,1-5.79-1.18,7.33,7.33,0,0,1-3-3,11,11,0,0,1-1.11-4.13q-.18-2.3-.18-4.53V62H37V90.08c0,1.21,0,2.37.09,3.47a8,8,0,0,0,.63,2.86,4.53,4.53,0,0,0,1.66,1.94,5.86,5.86,0,0,0,3.17.72c2.25,0,3.8-.67,4.65-2s1.26-3.58,1.26-6.76V62h4.4Zm20.51,12.18-6.4-16.7-6.44,16.7H56l8.8-21L57.06,62H62l5.37,14.48L73,62h4.47L69.6,80.55l8.93,21.71Zm28.14-23.61a10,10,0,0,1-1.9,3.77A9.09,9.09,0,0,1,96.14,85a12.86,12.86,0,0,1-5.18.93H87v16.34H82.45V62h7.78a19.16,19.16,0,0,1,5.37.64,7.66,7.66,0,0,1,3.8,2.62,15.81,15.81,0,0,1,.9,1.3,9.86,9.86,0,0,1,.88,1.81,13.93,13.93,0,0,1,.63,2.44,19.39,19.39,0,0,1,.24,3.26A17.61,17.61,0,0,1,101.48,78.65ZM110,102.26h-4.16V72.53H110Zm.18-35.1h-4.52V62h4.52Zm21.42,35.1h-4.16V83.39c0-.93,0-1.85-.07-2.78a9.09,9.09,0,0,0-.42-2.47,4.16,4.16,0,0,0-1.11-1.78,3.09,3.09,0,0,0-2.15-.7,3.46,3.46,0,0,0-2.59,1,6.42,6.42,0,0,0-1.45,2.44,13.79,13.79,0,0,0-.63,3.08c-.1,1.09-.15,2.07-.15,2.95v17.13h-4.16V72.53h3.8v4.53c.12-.33.32-.78.6-1.36A7.45,7.45,0,0,1,120.27,74a7,7,0,0,1,1.93-1.51,5.81,5.81,0,0,1,2.83-.63,6.46,6.46,0,0,1,3.35.84,5.65,5.65,0,0,1,2.14,2.23,8.56,8.56,0,0,1,.91,3.68q.12,2.3.12,4.83Z"/></svg>